<svg
   xmlns:dc="http://purl.org/dc/elements/1.1/"
   xmlns:cc="http://web.resource.org/cc/"
   xmlns:rdf="http://www.w3.org/1999/02/22-rdf-syntax-ns#"
   xmlns:svg="http://www.w3.org/2000/svg"
   xmlns="http://www.w3.org/2000/svg"
   xmlns:sodipodi="http://sodipodi.sourceforge.net/DTD/sodipodi-0.dtd"
   xmlns:inkscape="http://www.inkscape.org/namespaces/inkscape"
   id="svg2"
   sodipodi:version="0.32"
   inkscape:version="0.45"
   width="93"
   height="88"
   version="1.0"
   sodipodi:docbase="/home/michelet/Images"
   sodipodi:docname="Go_kanji.png"
   sodipodi:modified="true">
  <metadata
     id="metadata7">
    <rdf:RDF>
      <cc:Work
         rdf:about="">
        <dc:format>image/svg+xml</dc:format>
        <dc:type
           rdf:resource="http://purl.org/dc/dcmitype/StillImage" />
      </cc:Work>
    </rdf:RDF>
  </metadata>
  <defs
     id="defs5" />
  <sodipodi:namedview
     inkscape:window-height="594"
     inkscape:window-width="822"
     inkscape:pageshadow="2"
     inkscape:pageopacity="0.0"
     guidetolerance="10.0"
     gridtolerance="10.0"
     objecttolerance="10.0"
     borderopacity="1.0"
     bordercolor="#666666"
     pagecolor="#ffffff"
     id="base"
     inkscape:zoom="4.3068182"
     inkscape:cx="46.5"
     inkscape:cy="44"
     inkscape:window-x="5"
     inkscape:window-y="50"
     inkscape:current-layer="svg2" />
  <path
     style="fill: #ce2222"
     d="M 20.92876,79.031834 C 20.92876,78.577707 22.092664,77.115207 23.515212,75.781834 C 27.869387,71.700612 35.138069,60.845353 34.547388,59.306065 C 33.797651,57.35228 30.493787,57.471332 28.801205,59.513124 C 26.451381,62.347757 13.82019,72.082283 13.242056,71.50415 C 12.940281,71.202374 16.235812,67.445929 20.565458,63.156494 C 28.174453,55.618165 32.396062,49.422648 31.220143,47.51997 C 30.907932,47.014802 28.051255,46.873366 24.871972,47.205667 C 20.100835,47.704349 18.684365,47.479809 16.760109,45.919765 C 15.477867,44.880218 14.667358,43.789845 14.958978,43.496715 C 15.250599,43.203584 19.525599,42.602348 24.458978,42.160635 C 34.865311,41.228898 34.608272,41.60139 33.440941,29.144232 C 32.820098,22.518914 32.559143,21.85752 30.565946,21.85752 C 28.14441,21.85752 23.92876,19.28088 23.92876,17.800816 C 23.92876,17.282003 25.72876,16.85752 27.92876,16.85752 C 32.46627,16.85752 32.821098,15.919435 29.857727,11.757763 C 28.038814,9.2033358 27.979496,8.7752808 29.370462,8.2415172 C 31.324593,7.4916468 33.577412,9.2774074 35.592003,13.173198 L 37.123374,16.134541 L 44.612783,15.501454 C 48.731958,15.153256 52.566203,14.581593 53.133327,14.23109 C 53.743065,13.854252 53.919781,11.808667 53.565742,9.2256666 C 53.122447,5.9914774 53.306199,4.8575198 54.273576,4.8575198 C 56.235447,4.8575198 59.92876,9.204557 59.92876,11.513683 C 59.92876,13.009333 60.968199,13.852368 63.89258,14.728534 C 68.135972,15.999885 71.552791,19.633489 69.981987,21.204293 C 69.411012,21.775268 67.393969,21.710268 64.741258,21.035409 C 61.464649,20.201827 60.160196,20.22885 59.310705,21.147907 C 58.179576,22.371666 56.221266,30.104934 55.229952,37.262603 L 54.68911,41.167686 L 61.814468,40.570321 C 67.692397,40.077537 69.820183,40.338817 73.968453,42.06276 C 81.645722,45.253289 79.862846,46.41659 67.961747,45.982048 C 61.462134,45.744729 57.816483,45.969411 58.053603,46.592689 C 58.917154,48.86256 68.338667,55.918994 76.300103,60.258776 C 85.092304,65.051409 88.304982,67.724688 83.835132,66.528698 C 82.511627,66.17457 78.954875,65.878685 75.931237,65.871175 L 70.433715,65.85752 L 60.666815,55.785562 L 50.899915,45.713605 L 43.317408,46.535562 L 35.734902,47.35752 L 34.449669,51.10752 C 32.944621,55.498887 32.4694,55.359885 43.419634,53.73124 C 50.213937,52.720714 51.192069,52.785837 52.936901,54.364887 C 55.91995,57.06451 54.466703,57.85752 46.53641,57.85752 C 42.535536,57.85752 39.039654,58.079959 38.767784,58.351829 C 38.495914,58.623699 38.471989,60.198699 38.714617,61.851829 C 39.122004,64.627534 39.466838,64.85752 43.221261,64.85752 C 45.457288,64.85752 48.764905,64.323017 50.571522,63.669736 C 53.40647,62.644606 54.135121,62.734299 55.89252,64.324724 C 58.554803,66.734057 58.461211,67.517954 54.880254,72.80313 L 51.868142,77.24874 L 45.38421,77.398122 C 38.950182,77.546355 38.883659,77.519836 36.740863,73.952512 C 35.553185,71.975267 34.450187,70.185614 34.289757,69.975506 C 34.129327,69.765399 31.471208,71.902899 28.382826,74.725506 C 23.01778,79.628856 20.92876,80.835715 20.92876,79.031834 z M 48.701348,71.45729 C 50.142072,68.295245 49.527285,67.85752 43.645462,67.85752 C 39.000172,67.85752 38.732611,67.99601 39.298474,70.10752 C 39.630111,71.34502 39.907595,72.69502 39.915105,73.10752 C 39.922615,73.52002 41.656528,73.85752 43.768245,73.85752 C 46.850717,73.85752 47.823354,73.384278 48.701348,71.45729 z M 48.92876,38.35752 C 48.92876,36.039581 48.582843,35.858635 44.17876,35.872833 C 38.658677,35.890628 36.38602,37.000779 37.251658,39.256595 C 37.712489,40.457502 39.248098,40.85752 43.397375,40.85752 C 48.630852,40.85752 48.92876,40.722876 48.92876,38.35752 z M 49.72876,31.65752 C 50.38876,30.99752 50.92876,29.81091 50.92876,29.02061 C 50.92876,27.863999 49.649874,27.686356 44.37275,28.109953 C 37.168025,28.688279 36.399265,29.035296 37.273837,31.314392 C 38.004545,33.218588 47.895208,33.491072 49.72876,31.65752 z M 52.17876,24.196732 C 52.59126,23.945247 52.92876,22.800777 52.92876,21.653466 C 52.92876,19.677252 52.552139,19.59902 45.773965,20.167278 C 38.123361,20.808677 36.282276,21.730428 37.308771,24.405429 C 37.864978,25.854881 38.887002,25.988531 44.691554,25.370876 C 48.397017,24.976582 51.76626,24.448218 52.17876,24.196732 z "
     id="path2161" />
</svg>
